;
; neschael
; data/levels/****.s
;
; file generated by tools/formatSong.c
; music and sfx data
;

.EXPORT song_list_low
.EXPORT song_list_high
.EXPORT sfx_list_low
.EXPORT sfx_list_high
.EXPORT instrument_list_low
.EXPORT instrument_list_high

song_list_low:
	.BYTE <_emegamahb
	.BYTE <_Newsong3
song_list_high:
	.BYTE >_emegamahb
	.BYTE >_Newsong3

sfx_list_low:
sfx_list_high:

instrument_list_low:
	.BYTE <_MultiTasker_0
	.BYTE <_Tick_1
	.BYTE <_Snare_2
	.BYTE <_Hat_3
	.BYTE <_Twinkle_4
	.BYTE <silent_5
instrument_list_high:
	.BYTE >_MultiTasker_0
	.BYTE >_Tick_1
	.BYTE >_Snare_2
	.BYTE >_Hat_3
	.BYTE >_Twinkle_4
	.BYTE >silent_5

_MultiTasker_0:
	.BYTE $05, $08, $0A, $0C, ARP_TYPE_ABSOLUTE
	.BYTE $00, $0F, ENV_STOP
	.BYTE $00, ENV_STOP
	.BYTE $00, DUTY_ENV_STOP
	.BYTE ENV_STOP

_Tick_1:
	.BYTE $05, $09, $0B, $0D, ARP_TYPE_ABSOLUTE
	.BYTE $00, $0F, $00, ENV_STOP
	.BYTE $00, ENV_STOP
	.BYTE $00, DUTY_ENV_STOP
	.BYTE ENV_STOP

_Snare_2:
	.BYTE $05, $0D, $0F, $11, ARP_TYPE_ABSOLUTE
	.BYTE $0F, $0F, $0E, $07, $05, $03, $00, ENV_STOP
	.BYTE $00, ENV_STOP
	.BYTE $00, DUTY_ENV_STOP
	.BYTE $00, $06, $06, $06, $07, $08, ENV_STOP

_Hat_3:
	.BYTE $05, $0A, $0C, $0E, ARP_TYPE_ABSOLUTE
	.BYTE $0F, $09, $07, $00, ENV_STOP
	.BYTE $00, ENV_STOP
	.BYTE $00, DUTY_ENV_STOP
	.BYTE ENV_STOP

_Twinkle_4:
	.BYTE $05, $0B, $0D, $0F, ARP_TYPE_ABSOLUTE
	.BYTE $0F, $0F, $07, $07, $00, ENV_STOP
	.BYTE $00, ENV_STOP
	.BYTE $00, DUTY_ENV_STOP
	.BYTE ENV_STOP

silent_5:
	.BYTE $05, $07, $09, $0B, ARP_TYPE_ABSOLUTE
	.BYTE $00, ENV_STOP
	.BYTE $00, ENV_STOP
	.BYTE $00, DUTY_ENV_STOP
	.BYTE ENV_STOP

_emegamahb:
	.BYTE $00
	.BYTE $08
	.WORD _emegamahb_square1
	.WORD _emegamahb_square2
	.WORD _emegamahb_triangle
	.WORD _emegamahb_noise

_emegamahb_square1:
_emegamahb_square1_loop:
	.BYTE CAL,<(_emegamahb_square1_0),>(_emegamahb_square1_0)
	.BYTE CAL,<(_emegamahb_square1_1),>(_emegamahb_square1_1)
	.BYTE CAL,<(_emegamahb_square1_2),>(_emegamahb_square1_2)
	.BYTE CAL,<(_emegamahb_square1_3),>(_emegamahb_square1_3)
	.BYTE CAL,<(_emegamahb_square1_4),>(_emegamahb_square1_4)
	.BYTE CAL,<(_emegamahb_square1_5),>(_emegamahb_square1_5)
	.BYTE CAL,<(_emegamahb_square1_6),>(_emegamahb_square1_6)
	.BYTE CAL,<(_emegamahb_square1_7),>(_emegamahb_square1_7)
	.BYTE CAL,<(_emegamahb_square1_8),>(_emegamahb_square1_8)
	.BYTE CAL,<(_emegamahb_square1_9),>(_emegamahb_square1_9)
	.BYTE CAL,<(_emegamahb_square1_10),>(_emegamahb_square1_10)
	.BYTE CAL,<(_emegamahb_square1_11),>(_emegamahb_square1_11)
	.BYTE CAL,<(_emegamahb_square1_12),>(_emegamahb_square1_12)
	.BYTE CAL,<(_emegamahb_square1_13),>(_emegamahb_square1_13)
	.BYTE GOT
	.WORD _emegamahb_square1_loop

_emegamahb_square2:
_emegamahb_square2_loop:
	.BYTE CAL,<(_emegamahb_square2_0),>(_emegamahb_square2_0)
	.BYTE CAL,<(_emegamahb_square2_1),>(_emegamahb_square2_1)
	.BYTE CAL,<(_emegamahb_square2_2),>(_emegamahb_square2_2)
	.BYTE CAL,<(_emegamahb_square2_3),>(_emegamahb_square2_3)
	.BYTE CAL,<(_emegamahb_square2_4),>(_emegamahb_square2_4)
	.BYTE CAL,<(_emegamahb_square2_5),>(_emegamahb_square2_5)
	.BYTE CAL,<(_emegamahb_square2_6),>(_emegamahb_square2_6)
	.BYTE CAL,<(_emegamahb_square2_7),>(_emegamahb_square2_7)
	.BYTE CAL,<(_emegamahb_square2_8),>(_emegamahb_square2_8)
	.BYTE CAL,<(_emegamahb_square2_9),>(_emegamahb_square2_9)
	.BYTE CAL,<(_emegamahb_square2_10),>(_emegamahb_square2_10)
	.BYTE CAL,<(_emegamahb_square2_11),>(_emegamahb_square2_11)
	.BYTE CAL,<(_emegamahb_square2_12),>(_emegamahb_square2_12)
	.BYTE CAL,<(_emegamahb_square2_13),>(_emegamahb_square2_13)
	.BYTE GOT
	.WORD _emegamahb_square2_loop

_emegamahb_triangle:
_emegamahb_triangle_loop:
	.BYTE CAL,<(_emegamahb_triangle_0),>(_emegamahb_triangle_0)
	.BYTE CAL,<(_emegamahb_triangle_1),>(_emegamahb_triangle_1)
	.BYTE CAL,<(_emegamahb_triangle_2),>(_emegamahb_triangle_2)
	.BYTE CAL,<(_emegamahb_triangle_3),>(_emegamahb_triangle_3)
	.BYTE CAL,<(_emegamahb_triangle_4),>(_emegamahb_triangle_4)
	.BYTE CAL,<(_emegamahb_triangle_5),>(_emegamahb_triangle_5)
	.BYTE CAL,<(_emegamahb_triangle_6),>(_emegamahb_triangle_6)
	.BYTE CAL,<(_emegamahb_triangle_5),>(_emegamahb_triangle_5)
	.BYTE CAL,<(_emegamahb_triangle_6),>(_emegamahb_triangle_6)
	.BYTE CAL,<(_emegamahb_triangle_7),>(_emegamahb_triangle_7)
	.BYTE CAL,<(_emegamahb_triangle_8),>(_emegamahb_triangle_8)
	.BYTE CAL,<(_emegamahb_triangle_5),>(_emegamahb_triangle_5)
	.BYTE CAL,<(_emegamahb_triangle_9),>(_emegamahb_triangle_9)
	.BYTE CAL,<(_emegamahb_triangle_10),>(_emegamahb_triangle_10)
	.BYTE GOT
	.WORD _emegamahb_triangle_loop

_emegamahb_noise:
_emegamahb_noise_loop:
	.BYTE CAL,<(_emegamahb_noise_0),>(_emegamahb_noise_0)
	.BYTE CAL,<(_emegamahb_noise_0),>(_emegamahb_noise_0)
	.BYTE CAL,<(_emegamahb_noise_0),>(_emegamahb_noise_0)
	.BYTE CAL,<(_emegamahb_noise_1),>(_emegamahb_noise_1)
	.BYTE CAL,<(_emegamahb_noise_2),>(_emegamahb_noise_2)
	.BYTE CAL,<(_emegamahb_noise_3),>(_emegamahb_noise_3)
	.BYTE CAL,<(_emegamahb_noise_3),>(_emegamahb_noise_3)
	.BYTE CAL,<(_emegamahb_noise_3),>(_emegamahb_noise_3)
	.BYTE CAL,<(_emegamahb_noise_3),>(_emegamahb_noise_3)
	.BYTE CAL,<(_emegamahb_noise_3),>(_emegamahb_noise_3)
	.BYTE CAL,<(_emegamahb_noise_3),>(_emegamahb_noise_3)
	.BYTE CAL,<(_emegamahb_noise_3),>(_emegamahb_noise_3)
	.BYTE CAL,<(_emegamahb_noise_4),>(_emegamahb_noise_4)
	.BYTE CAL,<(_emegamahb_noise_5),>(_emegamahb_noise_5)
	.BYTE GOT
	.WORD _emegamahb_noise_loop

_emegamahb_square1_0:
	.BYTE STI, $00, SL0, AS3, SLA, B3, SL6, CS4, SL0, AS3, SLA, B3
	.BYTE SL6, CS4
	.BYTE RET

_emegamahb_square1_1:
	.BYTE STI, $00, SL4, AS3, CS4, GS4, SL2, F4, FS4, STI, $05
	.BYTE SL6, A0, STI, $00, SL2, FS4, F4, DS4, CS4, DS4, STI, $05
	.BYTE A0, STI, $00, AS3, GS3, FS3, STI, $05, A0, STI, $00
	.BYTE FS3, F3, FS3, SL0, CS4
	.BYTE RET

_emegamahb_square1_2:
	.BYTE STI, $00, SL6, DS4, CS4, SL4, B3, SL6, F4, DS4, SL4, CS4
	.BYTE SL6, F4, DS4, SL4, D4, SL6, FS4, F4, SL4, DS4
	.BYTE RET

_emegamahb_square1_3:
	.BYTE STI, $00, SL8, FS4, STI, $05, SL2, A0, STI, $00, A3, B3
	.BYTE CS4, SL8, D4, SL2, D4, SL4, CS4, SL2, D4, SLA, B3, SL2
	.BYTE B3, GS3, B3, SL4, E4, D4, CS4, B3
	.BYTE RET

_emegamahb_square1_4:
	.BYTE STI, $00, SL4, C4, STI, $05, SL2, A0, STI, $00, C4, C4
	.BYTE SL4, B3, SL2, C4, SL4, A3, STI, $05, SL2, A0, STI, $00
	.BYTE A3, A3, SL4, B3, SL2, C4, SL0, D4, FS6
	.BYTE RET

_emegamahb_square1_5:
	.BYTE STI, $00, SL2, C4, SL1, C4, C4, SL2, C4, SL1, C4, C4, SL2
	.BYTE C4, D4, STI, $05, A0, STI, $00, SL0, AS3, SL2, AS3, GS3
	.BYTE SL1, GS3, GS3, SL2, GS3, F3, STI, $05, A0, STI, $00
	.BYTE F3, STI, $05, A0, STI, $00, SL8, G3, SL2, G3, GS3, AS3
	.BYTE STI, $05, SL4, A0
	.BYTE RET

_emegamahb_square1_6:
	.BYTE STI, $00, SL2, C4, SL1, C4, C4, SL2, C4, SL1, C4, C4, SL2
	.BYTE C4, D4, STI, $05, A0, STI, $00, SL0, AS3, SL2, AS3, SL4
	.BYTE GS3, SL2, GS3, AS3, STI, $05, A0, STI, $00, AS3, STI, $05
	.BYTE A0, STI, $00, SLA, C4, STI, $04, SL1, G5, F5, DS5, F5, DS5
	.BYTE D5, CS5, C5
	.BYTE RET

_emegamahb_square1_7:
	.BYTE STI, $00, SL2, C4, SL1, C4, C4, SL2, C4, SL1, C4, C4, SL2
	.BYTE C4, D4, STI, $05, A0, STI, $00, SL0, AS3, SL2, AS3, GS3
	.BYTE SL1, GS3, GS3, SL2, GS3, F3, STI, $05, A0, STI, $00
	.BYTE F3, STI, $05, A0, STI, $00, SL8, G3, SL2, G3, GS3, AS3
	.BYTE STI, $05, SL4, A0
	.BYTE RET

_emegamahb_square1_8:
	.BYTE STI, $00, SL2, C4, SL1, C4, C4, SL2, C4, SL1, C4, C4, SL2
	.BYTE C4, D4, STI, $05, A0, STI, $00, SL0, AS3, SL2, AS3, SL4
	.BYTE GS3, SL2, GS3, AS3, STI, $05, A0, STI, $00, AS3, STI, $05
	.BYTE A0, STI, $00, SLA, C4, STI, $04, SL1, G5, F5, DS5, F5, DS5
	.BYTE D5, CS5, C5
	.BYTE RET

_emegamahb_square1_9:
	.BYTE STI, $00, SL2, C4, C4, G3, E3, E4, C4, G3, SL4, G4, SL2
	.BYTE F4, E4, D4, E4, SL4, C4, STI, $05, SL2, A0, STI, $00
	.BYTE AS3, AS3, A3, F3, SL4, D4, SL2, AS3, G3, SL1, AS3, AS3
	.BYTE F3, D4, AS3, F4, D4, AS4, SL2, F4, SL4, AS3, STI, $05
	.BYTE SL2, A0
	.BYTE RET

_emegamahb_square1_10:
	.BYTE STI, $00, SL2, A3, SL1, A3, C4, A3, E3, SL2, C3, SL1, A3
	.BYTE C4, A3, E3, SL2, C3, SL1, A3, C4, GS4, A4, GS4, A4, GS4
	.BYTE A4, E4, C4, STI, $05, SL2, A0, STI, $00, SL4, A3, STI, $05
	.BYTE SL2, A0, STI, $00, SL1, C3, DS3, SL2, GS3, SL1, DS3, GS3
	.BYTE SL2, C4, SL1, GS3, C4, SL2, DS4, SL1, C4, DS4, SL2, GS4
	.BYTE GS3, GS3, GS3, GS3, STI, $05, A0, STI, $00, SL4, AS3, STI, $05
	.BYTE SL2, A0
	.BYTE RET

_emegamahb_square1_11:
	.BYTE STI, $00, SL2, C4, SL1, C4, C4, SL2, C4, SL1, C4, C4, SL2
	.BYTE C4, D4, STI, $05, A0, STI, $00, SL0, AS3, SL2, AS3, GS3
	.BYTE SL1, GS3, GS3, SL2, GS3, F3, STI, $05, A0, STI, $00
	.BYTE F3, STI, $05, A0, STI, $00, SL8, G3, SL2, G3, GS3, AS3
	.BYTE STI, $05, SL4, A0
	.BYTE RET

_emegamahb_square1_12:
	.BYTE STI, $00, SL2, C4, SL1, C4, C4, SL2, C4, SL1, C4, C4, SL2
	.BYTE C4, D4, STI, $05, A0, STI, $00, SL0, AS3, STI, $05
	.BYTE SL2, A0, STI, $00, G3, G3, A3, C4, STI, $05, A0, STI, $00
	.BYTE G3, A3, C4, STI, $05, A0, STI, $00, G3, A3, C4, STI, $05
	.BYTE A0, STI, $00, G4, A4, C5
	.BYTE RET

_emegamahb_square1_13:
	.BYTE STI, $05, SLL,64, A0
	.BYTE RET

_emegamahb_square2_0:
	.BYTE STI, $05, SL2, A0, STI, $00, CS4, FS4, GS4, SL4, AS4, STI, $05
	.BYTE SL6, A0, STI, $00, SL2, D4, FS4, GS4, SL4, B4, STI, $05
	.BYTE SL6, A0, STI, $00, SL2, CS4, FS4, GS4, SL4, AS4, STI, $05
	.BYTE SL6, A0, STI, $00, SL2, D4, FS4, GS4, SL4, B4, STI, $05
	.BYTE A0
	.BYTE RET

_emegamahb_square2_1:
	.BYTE STI, $00, SL2, FS4, CS4, FS4, AS4, F4, CS4, F4, GS4, DS4
	.BYTE AS3, DS4, FS4, CS4, GS3, CS4, FS4, C4, GS3, C4, DS4, C4
	.BYTE GS3, C4, DS4, SL4, CS4, STI, $05, A0, STI, $00, SL2, DS4
	.BYTE SL4, CS4, STI, $05, SL2, A0
	.BYTE RET

_emegamahb_square2_2:
	.BYTE STI, $00, SL2, B3, FS3, B3, CS4, SL4, DS4, STI, $05
	.BYTE A0, STI, $00, SL2, CS4, GS3, CS4, DS4, SL4, F4, STI, $05
	.BYTE A0, STI, $00, SL2, D4, AS3, D4, DS4, SL4, F4, STI, $05
	.BYTE A0, STI, $00, SL2, DS4, AS3, DS4, F4, SL4, FS4, STI, $05
	.BYTE A0
	.BYTE RET

_emegamahb_square2_3:
	.BYTE STI, $00, SL2, D3, FS3, A3, AS2, D3, FS3, A3, AS2, D3, FS3
	.BYTE A3, AS2, D3, FS3, A3, AS2, E3, GS3, B3, E4, E3, GS3, B3
	.BYTE E4, E3, GS3, B3, E4, E3, GS3, B3, E4
	.BYTE RET

_emegamahb_square2_4:
	.BYTE STI, $00, SL2, F3, A3, C4, F4, F3, A3, C4, F4, F3, A3, C4
	.BYTE F4, F3, A3, C4, SLL,18, F4, SL0, D6
	.BYTE RET

_emegamahb_square2_5:
	.BYTE STI, $00, SL2, G3, SL1, G3, G3, SL2, G3, SL1, G3, G3, SL2
	.BYTE G3, G3, STI, $05, A0, STI, $00, SL0, F3, SL2, G3, DS3
	.BYTE SL1, DS3, DS3, SL2, DS3, D3, STI, $05, A0, STI, $00
	.BYTE D3, STI, $05, A0, STI, $00, SL8, E3, SL2, E3, DS3, F3, STI, $05
	.BYTE SL4, A0
	.BYTE RET

_emegamahb_square2_6:
	.BYTE STI, $00, SL2, G3, SL1, G3, G3, SL2, G3, SL1, G3, G3, SL2
	.BYTE G3, G3, STI, $05, A0, STI, $00, SL0, F3, SL2, G3, SL4
	.BYTE DS3, SL2, DS3, F3, STI, $05, A0, STI, $00, F3, STI, $05
	.BYTE A0, STI, $00, SLB, G3, STI, $04, SL1, G5, F5, DS5, F5, DS5
	.BYTE D5, CS5
	.BYTE RET

_emegamahb_square2_7:
	.BYTE STI, $00, SL2, G3, SL1, G3, G3, SL2, G3, SL1, G3, G3, SL2
	.BYTE G3, G3, STI, $05, A0, STI, $00, SL0, F3, SL2, G3, DS3
	.BYTE SL1, DS3, DS3, SL2, DS3, D3, STI, $05, A0, STI, $00
	.BYTE D3, STI, $05, A0, STI, $00, SL8, E3, SL2, E3, DS3, F3, STI, $05
	.BYTE SL4, A0
	.BYTE RET

_emegamahb_square2_8:
	.BYTE STI, $00, SL2, G3, SL1, G3, G3, SL2, G3, SL1, G3, G3, SL2
	.BYTE G3, G3, STI, $05, A0, STI, $00, SL0, F3, SL2, G3, SL4
	.BYTE DS3, SL2, DS3, F3, STI, $05, A0, STI, $00, F3, STI, $05
	.BYTE A0, STI, $00, SLB, G3, STI, $04, SL1, G5, F5, DS5, F5, DS5
	.BYTE D5, CS5
	.BYTE RET

_emegamahb_square2_9:
	.BYTE STI, $00, SL2, G3, STI, $05, A0, STI, $00, C4, G3, E3, E4
	.BYTE C4, G3, SL4, G4, SL2, F4, E4, D4, SL4, G3, STI, $05
	.BYTE SL2, A0, STI, $00, F3, STI, $05, A0, STI, $00, AS3, A3
	.BYTE F3, SL4, D4, SL2, AS3, G3, SL1, AS3, AS3, F3, D4, AS3
	.BYTE F4, D4, AS4, SL4, F3, STI, $05, SL2, A0
	.BYTE RET

_emegamahb_square2_10:
	.BYTE STI, $00, SL2, E3, STI, $05, SL1, A0, STI, $00, A3, C4
	.BYTE A3, E3, SL2, C3, SL1, A3, C4, A3, E3, SL2, C3, SL1, A3
	.BYTE C4, GS4, A4, GS4, A4, GS4, A4, E4, SL2, C4, SL4, E3, STI, $05
	.BYTE SL2, A0, STI, $00, SL1, DS3, GS3, SL2, C4, SL1, GS3, C4
	.BYTE SL2, DS4, SL1, C4, DS4, SL2, GS4, SL1, DS4, GS4, SL2, C5
	.BYTE DS3, DS3, DS3, DS3, STI, $05, A0, STI, $00, SL4, F3, STI, $05
	.BYTE SL2, A0
	.BYTE RET

_emegamahb_square2_11:
	.BYTE STI, $00, SL2, G3, SL1, G3, G3, SL2, G3, SL1, G3, G3, SL2
	.BYTE G3, G3, STI, $05, A0, STI, $00, SL0, F3, SL2, G3, DS3
	.BYTE SL1, DS3, DS3, SL2, DS3, D3, STI, $05, A0, STI, $00
	.BYTE D3, STI, $05, A0, STI, $00, SL8, E3, SL2, E3, DS3, F3, STI, $05
	.BYTE SL4, A0
	.BYTE RET

_emegamahb_square2_12:
	.BYTE STI, $00, SL2, G3, SL1, G3, G3, SL2, G3, SL1, G3, G3, SL2
	.BYTE G3, G3, STI, $05, A0, STI, $00, SL0, F3, STI, $05
	.BYTE SL2, A0, STI, $00, E3, E3, F3, G3, STI, $05, A0, STI, $00
	.BYTE E3, F3, G3, STI, $05, A0, STI, $00, E3, F3, G3, STI, $05
	.BYTE A0, STI, $00, E4, F4, G4
	.BYTE RET

_emegamahb_square2_13:
	.BYTE STI, $05, SLL,64, A0
	.BYTE RET

_emegamahb_triangle_0:
	.BYTE STI, $00, SL6, FS3, SL2, FS3, SL4, FS3, STI, $05
	.BYTE A0, STI, $00, SL6, FS3, SL2, FS3, SL4, FS3, STI, $05
	.BYTE A0, STI, $00, SL6, FS3, SL2, FS3, SL4, FS3, STI, $05
	.BYTE A0, STI, $00, SL6, FS3, SL2, FS3, SL4, FS3, STI, $05
	.BYTE A0
	.BYTE RET

_emegamahb_triangle_1:
	.BYTE STI, $00, SL8, FS3, F3, DS3, CS3, C3, DS3, SL6, CS3, SL2
	.BYTE CS3, SL4, CS3, STI, $05, A0
	.BYTE RET

_emegamahb_triangle_2:
	.BYTE STI, $00, SLC, B2, SL4, C3, SL0, CS3, SLC, AS2, SL4, D3
	.BYTE SL0, DS3
	.BYTE RET

_emegamahb_triangle_3:
	.BYTE STI, $00, SL2, D3, D3, STI, $05, A0, STI, $00, D3, D3, A2
	.BYTE D3, FS3, D3, D3, STI, $05, A0, STI, $00, D3, D3, A2, D3
	.BYTE FS3, E3, E3, STI, $05, A0, STI, $00, E3, E3, B2, E3, GS3
	.BYTE E3, E3, STI, $05, A0, STI, $00, E3, E3, B2, E3, GS3
	.BYTE RET

_emegamahb_triangle_4:
	.BYTE STI, $00, SL2, F3, F3, STI, $05, A0, STI, $00, F3, F3, C3
	.BYTE F3, A3, F3, F3, STI, $05, A0, STI, $00, F3, F3, C3, F3
	.BYTE A3, SL1, B5, B5, SL2, B5, SL1, D5, D5, SL2, D5, SL1, D5
	.BYTE D5, SL2, D5, SL1, D5, D5, SL2, D5, SL0, E6
	.BYTE RET

_emegamahb_triangle_5:
	.BYTE STI, $00, SL2, C4, SL1, C4, C4, SL2, C4, SL1, C4, C4, SL2
	.BYTE C4, SL1, C4, C4, SL2, C4, SL1, C4, C4, SL2, C4, SL1, C4
	.BYTE C4, SL2, C4, SL1, C4, C4, SL2, C4, SL1, C4, C4, SL2, C4
	.BYTE SL1, C4, C4, SL2, C4, SL1, C4, C4, SL2, C4, SL1, C4, C4
	.BYTE SL2, C4, SL1, C4, C4, SL2, C4, SL1, C4, C4, SL2, C4, SL1
	.BYTE C4, C4, SL2, C4, SL1, C4, C4, SL2, C4, SL1, C4, C4, SL2
	.BYTE C4, SL1, C4, C4
	.BYTE RET

_emegamahb_triangle_6:
	.BYTE STI, $00, SL2, C4, SL1, C4, C4, SL2, C4, SL1, C4, C4, SL2
	.BYTE C4, SL1, C4, C4, SL2, C4, SL1, C4, C4, SL2, C4, SL1, C4
	.BYTE C4, SL2, C4, SL1, C4, C4, SL2, C4, SL1, C4, C4, SL2, C4
	.BYTE SL1, C4, C4, SL2, C4, SL1, C4, C4, SL2, C4, SL1, C4, C4
	.BYTE SL2, C4, SL1, C4, C4, SL2, C4, SL1, C4, C4, SL2, C4, SL1
	.BYTE C4, C4, SL2, C4, SL1, C4, C4, SL2, C4, G3, A3, C4
	.BYTE RET

_emegamahb_triangle_7:
	.BYTE STI, $00, SL3, E3, STI, $05, SL1, A0, STI, $00, SL2, G5
	.BYTE STI, $05, A0, STI, $00, D4, D4, G5, STI, $05, A0, STI, $00
	.BYTE D4, D4, G5, D4, STI, $05, A0, STI, $00, E3, G5, G5, SL3
	.BYTE D3, STI, $05, SL1, A0, STI, $00, SL2, G5, STI, $05
	.BYTE A0, STI, $00, D4, D4, G5, STI, $05, A0, STI, $00
	.BYTE D4, D4, G5, D4, STI, $05, A0, STI, $00, D3, G5, G5
	.BYTE RET

_emegamahb_triangle_8:
	.BYTE STI, $00, SL2, C3, STI, $05, A0, STI, $00, G5, STI, $05
	.BYTE A0, STI, $00, D4, D4, G5, STI, $05, A0, STI, $00
	.BYTE D4, D4, G5, D4, STI, $05, A0, STI, $00, C3, G5, G5, SL3
	.BYTE C3, STI, $05, SL1, A0, STI, $00, SL2, G5, STI, $05
	.BYTE A0, STI, $00, A3, A3, SL4, A5, SL1, A5, A5, SL2, A5, SL1
	.BYTE FS5, FS5, SL2, FS5, SL1, E5, E5, SL2, E5, SL1, A5, A5, FS5
	.BYTE E5
	.BYTE RET

_emegamahb_triangle_9:
	.BYTE STI, $00, SL2, C4, SL1, C4, C4, SL2, C4, SL1, C4, C4, SL2
	.BYTE C4, SL1, C4, C4, SL2, C4, SL1, C4, C4, SL2, C4, SL1, C4
	.BYTE C4, SL2, C4, SL1, C4, C4, SL2, C4, SL1, C4, C4, SL2, C4
	.BYTE SL1, C4, C4, SL2, C4, C4, D4, E4, STI, $05, A0, STI, $00
	.BYTE C4, D4, E4, STI, $05, A0, STI, $00, C4, D4, E4, STI, $05
	.BYTE A0, STI, $00, C4, D4, E4
	.BYTE RET

_emegamahb_triangle_10:
	.BYTE STI, $05, SLL,64, A0
	.BYTE RET

_emegamahb_noise_0:
	.BYTE STI, $05, SLC, A0, STI, $00, SL0, $0A, $0A, $0A, SL4, $0A
	.BYTE RET

_emegamahb_noise_1:
	.BYTE STI, $01, SL2, $0C, $0C, $0C, $0C, $0C, $0C, STI, $00
	.BYTE SL4, $0A, STI, $01, SL2, $0C, $0C, $0C, $0C, $0C, $0C
	.BYTE STI, $00, SL4, $0A, STI, $01, SL2, $0C, $0C, $0C, $0C
	.BYTE $0C, $0C, STI, $00, SL4, $0A, STI, $01, SL2, $0C, $0C
	.BYTE $0C, $0C, $0C, $0C, STI, $00, SL4, $0A
	.BYTE RET

_emegamahb_noise_2:
	.BYTE STI, $01, SL2, $0C, $0C, $0C, $0C, $0C, $0C, STI, $00
	.BYTE SL4, $0A, STI, $01, SL2, $0C, $0C, $0C, $0C, $0C, $0C
	.BYTE STI, $00, SL4, $0A, STI, $01, SL2, $0C, $0C, $0C, $0C
	.BYTE $0C, $0C, STI, $00, SLL,20, $0A
	.BYTE RET

_emegamahb_noise_3:
	.BYTE STI, $03, SL2, $0E, SL1, $0E, $0E, STI, $02, SL2, $03
	.BYTE STI, $03, SL1, $0E, $0E, SL2, $0E, SL1, $0E, $0E, STI, $02
	.BYTE SL2, $03, STI, $03, SL1, $0E, $0E, SL2, $0E, SL1, $0E
	.BYTE $0E, STI, $02, SL2, $03, STI, $03, SL1, $0E, $0E, SL2
	.BYTE $0E, SL1, $0E, $0E, STI, $02, SL2, $03, STI, $03
	.BYTE SL1, $0E, $0E, SL2, $0E, SL1, $0E, $0E, STI, $02
	.BYTE SL2, $03, STI, $03, SL1, $0E, $0E, SL2, $0E, SL1, $0E
	.BYTE $0E, STI, $02, SL2, $03, STI, $03, SL1, $0E, $0E, SL2
	.BYTE $0E, SL1, $0E, $0E, STI, $02, SL2, $03, STI, $03
	.BYTE SL1, $0E, $0E, SL2, $0E, SL1, $0E, $0E, STI, $02
	.BYTE SL2, $03, STI, $03, SL1, $0E, $0E
	.BYTE RET

_emegamahb_noise_4:
	.BYTE STI, $03, SL2, $0E, SL1, $0E, $0E, STI, $02, SL2, $03
	.BYTE STI, $03, SL1, $0E, $0E, SL2, $0E, SL1, $0E, $0E, STI, $02
	.BYTE SL2, $03, STI, $03, SL1, $0E, $0E, SL2, $0E, SL1, $0E
	.BYTE $0E, STI, $02, SL2, $03, STI, $03, SL1, $0E, $0E, SL2
	.BYTE $0E, SL1, $0E, $0E, STI, $02, SL2, $03, STI, $03
	.BYTE SL1, $0E, $0E, SL2, $0E, $0E, $0E, SL4, $0E, SL2, $0E
	.BYTE $0E, SL4, $0E, SL2, $0E, $0E, SL4, $0E, SL2, $0E, $0E
	.BYTE $0E
	.BYTE RET

_emegamahb_noise_5:
	.BYTE STI, $05, SLL,64, A0
	.BYTE RET

_Newsong3:
	.BYTE $00
	.BYTE $06
	.WORD _Newsong3_square1
	.WORD _Newsong3_square2
	.WORD _Newsong3_triangle
	.WORD _Newsong3_noise

_Newsong3_square1:
_Newsong3_square1_loop:
	.BYTE CAL,<(_Newsong3_square1_0),>(_Newsong3_square1_0)
	.BYTE CAL,<(_Newsong3_square1_1),>(_Newsong3_square1_1)
	.BYTE GOT
	.WORD _Newsong3_square1_loop

_Newsong3_square2:
_Newsong3_square2_loop:
	.BYTE CAL,<(_Newsong3_square2_0),>(_Newsong3_square2_0)
	.BYTE CAL,<(_Newsong3_square2_1),>(_Newsong3_square2_1)
	.BYTE GOT
	.WORD _Newsong3_square2_loop

_Newsong3_triangle:
_Newsong3_triangle_loop:
	.BYTE CAL,<(_Newsong3_triangle_0),>(_Newsong3_triangle_0)
	.BYTE CAL,<(_Newsong3_triangle_1),>(_Newsong3_triangle_1)
	.BYTE GOT
	.WORD _Newsong3_triangle_loop

_Newsong3_noise:
_Newsong3_noise_loop:
	.BYTE CAL,<(_Newsong3_noise_0),>(_Newsong3_noise_0)
	.BYTE CAL,<(_Newsong3_noise_1),>(_Newsong3_noise_1)
	.BYTE GOT
	.WORD _Newsong3_noise_loop

_Newsong3_square1_0:
	.BYTE STI, $00, SL1, DS4, CS4, CS4, DS4, F4, CS4, DS4, FS4, CS4
	.BYTE DS4, SL7, FS4, SL1, CS4, DS4, FS4, CS4, DS4, FS4, CS4
	.BYTE DS4, FS4, CS4, SLL,37, DS4
	.BYTE RET

_Newsong3_square1_1:
	.BYTE STI, $05, SLF, A0, STI, $00, SL1, FS4, CS4, SLL,47
	.BYTE DS4
	.BYTE RET

_Newsong3_square2_0:
	.BYTE STI, $00, SL1, CS4, DS4, SL5, FS4, SL1, CS4, FS4, DS4
	.BYTE CS4, FS4, SL7, DS4, SL1, CS4, FS4, SLL,26, DS4, SL1, FS4
	.BYTE CS4, DS4, DS4, FS4, CS4, FS4, DS4, CS4, FS4, DS4, CS4
	.BYTE DS4, FS4, CS4, DS4, FS4
	.BYTE RET

_Newsong3_square2_1:
	.BYTE STI, $05, SLL,64, A0
	.BYTE RET

_Newsong3_triangle_0:
	.BYTE STI, $05, SL3, A0, STI, $00, SL1, FS4, CS4, DS4, CS4, DS4
	.BYTE FS4, CS4, FS4, SLL,53, DS4
	.BYTE RET

_Newsong3_triangle_1:
	.BYTE STI, $05, SLL,24, A0, STI, $00, SL1, FS4, CS4, SLL,38
	.BYTE DS4
	.BYTE RET

_Newsong3_noise_0:
	.BYTE STI, $05, SL9, A0, STI, $00, SL1, $03, $06, $01, $03, $06
	.BYTE $01, $03, SLL,48, $06
	.BYTE RET

_Newsong3_noise_1:
	.BYTE STI, $05, SLL,64, A0
	.BYTE RET

